<svg xmlns="http://www.w3.org/2000/svg" viewBox="0 0 512 512"><rect width="512" height="512" fill="#FDF8E6" stroke="none"/><g stroke="#5A3A28" stroke-width="8" stroke-linejoin="round" stroke-linecap="round">
<path d="M150 210C110 170 70 200 86 236C60 250 70 300 112 296C140 294 150 280 166 266L346 266C362 280 372 294 400 296C442 300 452 250 426 236C442 200 402 170 362 210C352 222 346 234 346 246L166 246C166 234 160 222 150 210Z" fill="#FFFFFF"/>
<path d="M120 216Q130 208 142 210" fill="none" stroke="#B8B8B8" stroke-width="6"/>
</g></svg>
